<svg width="19" height="15" viewBox="0 0 19 15" fill="none" xmlns="http://www.w3.org/2000/svg">
<path fill-rule="evenodd" clip-rule="evenodd" d="M3.00884 1.01056C3.61326 -0.00512409 4.87575 0.0327682 5.51302 0.909556C6.37225 2.09173 7.58357 3.25001 9.50002 3.25001C11.4493 3.25001 12.6421 2.32013 13.4538 1.15389C14.085 0.246922 15.4303 0.10121 16.0919 1.17711C16.633 2.05709 17.2245 2.75801 18.392 3.05371C18.7459 3.14333 18.9691 3.54381 18.8907 3.94822C18.8123 4.35262 18.4619 4.6078 18.108 4.51818C16.4972 4.1102 15.6592 3.08231 15.018 2.03958C14.9755 1.97042 14.8995 1.91935 14.7849 1.92169C14.6658 1.92412 14.5514 1.9864 14.481 2.08764C13.4526 3.56525 11.8985 4.75001 9.50002 4.75001C7.03001 4.75001 5.48439 3.21771 4.5034 1.86801L5.00821 1.38878L4.5034 1.86801C4.44631 1.78946 4.36144 1.74808 4.27512 1.75007C4.19169 1.752 4.13099 1.79217 4.09413 1.85411C3.44123 2.95125 2.60362 4.08468 0.892005 4.51818C0.538153 4.6078 0.187729 4.35262 0.109312 3.94822C0.0308954 3.54381 0.25418 3.14333 0.608032 3.05371C1.84345 2.74082 2.43518 1.97454 3.00884 1.01056ZM3.00884 6.01056C3.61326 4.99488 4.87575 5.03277 5.51302 5.90956C6.37225 7.09173 7.58357 8.25001 9.50002 8.25001C11.4493 8.25001 12.6421 7.32013 13.4538 6.15389C14.085 5.24692 15.4303 5.10121 16.0919 6.17711C16.633 7.05709 17.2245 7.75801 18.392 8.05371C18.7459 8.14333 18.9691 8.54381 18.8907 8.94822C18.8123 9.35262 18.4619 9.6078 18.108 9.51818C16.4972 9.1102 15.6592 8.08231 15.018 7.03958C14.9755 6.97042 14.8995 6.91935 14.7849 6.92169C14.6658 6.92412 14.5514 6.9864 14.481 7.08764C13.4526 8.56524 11.8985 9.75001 9.50002 9.75001C7.03001 9.75001 5.48439 8.21771 4.5034 6.86801C4.44631 6.78946 4.36144 6.74808 4.27512 6.75007C4.19169 6.752 4.13099 6.79217 4.09413 6.85411C3.44123 7.95125 2.60362 9.08468 0.892005 9.51818C0.538153 9.6078 0.187729 9.35262 0.109312 8.94822C0.0308954 8.54381 0.25418 8.14333 0.608032 8.05371C1.84345 7.74082 2.43518 6.97454 3.00884 6.01056ZM3.00884 11.0106C3.61326 9.99488 4.87575 10.0328 5.51302 10.9096C6.37225 12.0917 7.58357 13.25 9.50002 13.25C11.4493 13.25 12.6421 12.3201 13.4538 11.1539C14.085 10.2469 15.4303 10.1012 16.0919 11.1771C16.633 12.0571 17.2245 12.758 18.392 13.0537C18.7459 13.1433 18.9691 13.5438 18.8907 13.9482C18.8123 14.3526 18.4619 14.6078 18.108 14.5182C16.4972 14.1102 15.6592 13.0823 15.018 12.0396C14.9755 11.9704 14.8995 11.9193 14.7849 11.9217C14.6658 11.9241 14.5514 11.9864 14.481 12.0876C13.4526 13.5652 11.8985 14.75 9.50002 14.75C7.03001 14.75 5.48439 13.2177 4.5034 11.868C4.44631 11.7895 4.36144 11.7481 4.27512 11.7501C4.19169 11.752 4.13099 11.7922 4.09413 11.8541C3.44123 12.9512 2.60362 14.0847 0.892005 14.5182C0.538153 14.6078 0.187729 14.3526 0.109312 13.9482C0.0308954 13.5438 0.25418 13.1433 0.608032 13.0537C1.84345 12.7408 2.43518 11.9745 3.00884 11.0106Z" fill="#FFB43F"/>
</svg>
