<svg width="37" height="26" viewBox="0 0 37 26" fill="none" xmlns="http://www.w3.org/2000/svg">
<path fill-rule="evenodd" clip-rule="evenodd" d="M11.3895 1.12648C11.2965 0.558094 10.8367 0.128569 10.2763 0.0865986C9.71583 0.0446279 9.20006 0.401092 9.02758 0.949601L5.63143 11.7499H1.25C0.576903 11.7499 0.03125 12.3096 0.03125 12.9999C0.03125 13.6903 0.576903 14.2499 1.25 14.2499H6.51894C7.04791 14.2499 7.51649 13.9 7.67886 13.3836L9.81272 6.59756L12.8018 24.8734C12.896 25.4494 13.3666 25.8817 13.9351 25.9146C14.5036 25.9475 15.0186 25.5723 15.1754 25.0109L19.1234 10.8776L21.2031 18.3433C21.3372 18.8245 21.738 19.1773 22.222 19.2401C22.7061 19.3029 23.18 19.0636 23.4266 18.6318L25.9296 14.2499H27.8245C28.355 16.1737 30.0795 17.5833 32.125 17.5833C34.593 17.5833 36.5938 15.5312 36.5938 12.9999C36.5938 10.4686 34.593 8.41661 32.125 8.41661C30.0795 8.41661 28.355 9.82619 27.8245 11.7499H25.2311C24.7984 11.7499 24.3982 11.9852 24.1795 12.3681L22.764 14.8462L20.2969 5.98988C20.1474 5.45341 19.6694 5.08348 19.1254 5.08328C18.5815 5.08308 18.1032 5.45265 17.9534 5.989L14.315 19.0139L11.3895 1.12648ZM30.0938 12.9999C30.0938 11.8493 31.0032 10.9166 32.125 10.9166C33.2468 10.9166 34.1562 11.8493 34.1562 12.9999C34.1562 14.1505 33.2468 15.0833 32.125 15.0833C31.0032 15.0833 30.0938 14.1505 30.0938 12.9999Z" fill="#FFC872"/>
</svg>
